<svg width="297" height="169" viewBox="0 0 297 169" fill="none" xmlns="http://www.w3.org/2000/svg">
<path d="M102.458 80.2617C102.458 80.4653 102.429 80.6253 102.371 80.7417C102.342 80.858 102.211 80.9162 101.978 80.9162C101.542 80.9162 101.106 80.9162 100.669 80.9162C100.262 80.8871 99.8401 80.8726 99.4037 80.8726C98.9965 80.8726 98.5746 80.989 98.1383 81.2217C97.731 81.4253 97.4983 81.7744 97.4401 82.269C97.411 82.4726 97.3965 82.6908 97.3965 82.9235C97.4255 83.1271 97.4401 83.3453 97.4401 83.578C97.4401 87.4471 97.4255 91.3162 97.3965 95.1853C97.3965 99.0544 97.3965 102.938 97.3965 106.836C97.3965 109.076 97.0765 111.098 96.4365 112.902C95.8255 114.734 94.7928 116.174 93.3383 117.222C91.8837 118.298 89.9055 118.836 87.4037 118.836C86.8801 118.836 86.2401 118.822 85.4837 118.793C84.7274 118.764 83.9855 118.662 83.2583 118.487C82.531 118.313 81.9201 118.007 81.4255 117.571C80.931 117.164 80.6837 116.582 80.6837 115.825C80.6837 115.098 80.9601 114.516 81.5128 114.08C82.0655 113.673 82.6619 113.469 83.3019 113.469C83.5346 113.469 83.8401 113.527 84.2183 113.644C84.6255 113.76 84.9892 113.92 85.3092 114.124C85.6292 114.327 85.7892 114.574 85.7892 114.865C85.6728 115.011 85.5565 115.171 85.4401 115.345C85.3237 115.52 85.2655 115.724 85.2655 115.956C85.2655 116.567 85.5128 116.989 86.0074 117.222C86.5019 117.454 86.9965 117.571 87.491 117.571C88.1892 117.571 88.8874 117.425 89.5855 117.134C90.2837 116.873 90.8946 116.48 91.4183 115.956C91.971 115.462 92.3201 114.851 92.4655 114.124C92.611 113.222 92.6983 112.32 92.7274 111.418C92.7565 110.516 92.771 109.614 92.771 108.713V82.269C92.771 81.8035 92.5819 81.469 92.2037 81.2653C91.8255 81.0617 91.3892 80.9453 90.8946 80.9162C90.4001 80.858 89.9928 80.829 89.6728 80.829C89.3819 80.829 89.091 80.8435 88.8001 80.8726C88.5383 80.9017 88.2765 80.9162 88.0146 80.9162C87.6074 80.9162 87.4037 80.7126 87.4037 80.3053C87.4037 79.869 87.5928 79.6508 87.971 79.6508C88.2619 79.6508 88.5528 79.6653 88.8437 79.6944C89.1637 79.7235 89.4692 79.738 89.7601 79.738C91.4183 79.8253 93.091 79.869 94.7783 79.869C95.971 79.869 97.1783 79.8399 98.4001 79.7817C99.6219 79.6944 100.829 79.6508 102.022 79.6508C102.255 79.6508 102.386 79.7235 102.415 79.869C102.444 79.9853 102.458 80.1162 102.458 80.2617ZM120.613 96.3199C120.584 95.1271 120.482 93.9926 120.308 92.9162C120.133 91.8108 119.712 90.909 119.042 90.2108C118.373 89.4835 117.282 89.1199 115.77 89.1199C114.402 89.1199 113.282 89.498 112.41 90.2544C111.566 90.9817 110.912 91.9126 110.446 93.0471C109.981 94.1526 109.632 95.2871 109.399 96.4508C110.126 96.4799 110.839 96.509 111.537 96.538C112.235 96.538 112.933 96.538 113.632 96.538C114.795 96.538 115.959 96.5235 117.122 96.4944C118.286 96.4362 119.45 96.378 120.613 96.3199ZM125.632 106.313C125.632 106.458 125.602 106.545 125.544 106.574C125.457 106.865 125.239 107.214 124.89 107.622C124.57 108.029 124.206 108.422 123.799 108.8C123.392 109.149 123.057 109.411 122.795 109.585C121.835 110.254 120.744 110.793 119.522 111.2C118.33 111.607 117.137 111.811 115.944 111.811C114.955 111.811 113.85 111.651 112.628 111.331C111.435 111.011 110.417 110.574 109.573 110.022C107.944 108.945 106.752 107.534 105.995 105.789C105.239 104.044 104.861 102.225 104.861 100.334C104.861 98.1817 105.282 96.189 106.126 94.3562C106.97 92.5235 108.322 91.0399 110.184 89.9053C111.028 89.4108 111.973 89.0035 113.021 88.6835C114.068 88.3344 115.072 88.1599 116.032 88.1599C117.748 88.1599 119.261 88.509 120.57 89.2071C121.879 89.9053 122.897 90.8944 123.624 92.1744C124.381 93.4253 124.759 94.9235 124.759 96.669C124.759 97.1635 124.642 97.4835 124.41 97.629C124.206 97.7744 123.886 97.8471 123.45 97.8471C122.868 97.8471 122.286 97.8326 121.704 97.8035C121.122 97.7744 120.541 97.7453 119.959 97.7162C119.144 97.658 118.33 97.629 117.515 97.629C116.73 97.629 115.93 97.629 115.115 97.629C114.126 97.629 113.137 97.629 112.148 97.629C111.159 97.629 110.17 97.658 109.181 97.7162C109.152 98.1817 109.122 98.6326 109.093 99.069C109.064 99.5053 109.05 99.9562 109.05 100.422C109.05 101.498 109.181 102.618 109.442 103.782C109.704 104.916 110.126 105.978 110.708 106.967C111.29 107.927 112.032 108.713 112.933 109.324C113.835 109.905 114.926 110.196 116.206 110.196C117.515 110.196 118.766 109.993 119.959 109.585C121.152 109.178 122.242 108.524 123.232 107.622C123.493 107.36 123.726 107.084 123.93 106.793C124.162 106.473 124.41 106.196 124.672 105.964C124.817 105.818 124.977 105.745 125.152 105.745C125.297 105.745 125.413 105.804 125.501 105.92C125.588 106.036 125.632 106.167 125.632 106.313ZM138.414 108.494C138.414 109.542 138.355 110.734 138.239 112.073C138.152 113.411 137.846 114.545 137.323 115.476C136.508 116.902 135.432 117.964 134.094 118.662C132.785 119.36 131.315 119.709 129.686 119.709C128.988 119.709 128.246 119.622 127.461 119.447C126.675 119.302 126.006 118.996 125.454 118.531C125.25 118.327 125.046 118.065 124.843 117.745C124.61 117.425 124.494 117.12 124.494 116.829C124.494 116.16 124.683 115.651 125.061 115.302C125.41 114.982 125.905 114.822 126.545 114.822C126.865 114.822 127.025 114.982 127.025 115.302C127.025 116 127.272 116.698 127.766 117.396C128.261 118.094 128.886 118.444 129.643 118.444C130.923 118.444 132.014 118.065 132.915 117.309C133.817 116.582 134.268 115.549 134.268 114.211V91.6071C134.268 91.0544 134.166 90.6617 133.963 90.429C133.759 90.1962 133.366 90.0799 132.785 90.0799C132.406 90.0799 132.014 90.109 131.606 90.1671C131.228 90.2253 130.835 90.2544 130.428 90.2544C130.37 90.2544 130.297 90.2108 130.21 90.1235C130.123 90.0071 130.079 89.9199 130.079 89.8617C130.079 89.7162 130.094 89.5853 130.123 89.469C130.181 89.3526 130.283 89.2799 130.428 89.2508C130.661 89.1635 131.054 89.0908 131.606 89.0326C132.188 88.9744 132.625 88.9308 132.915 88.9017C133.759 88.7562 134.588 88.5962 135.403 88.4217C136.217 88.2471 137.032 88.0871 137.846 87.9417C137.905 87.9417 137.963 87.9417 138.021 87.9417C138.079 87.9126 138.123 87.898 138.152 87.898C138.355 87.898 138.457 88.0435 138.457 88.3344L138.414 108.494ZM138.195 80.7853C138.195 81.5126 137.934 82.138 137.41 82.6617C136.915 83.1562 136.29 83.4035 135.534 83.4035C134.806 83.4035 134.181 83.1562 133.657 82.6617C133.134 82.138 132.872 81.5126 132.872 80.7853C132.872 80.058 133.134 79.4471 133.657 78.9526C134.181 78.429 134.806 78.1671 135.534 78.1671C136.261 78.1671 136.886 78.429 137.41 78.9526C137.934 79.4471 138.195 80.058 138.195 80.7853ZM158.961 106.531C158.845 105.222 158.772 103.913 158.743 102.604C158.743 101.265 158.729 99.9271 158.699 98.589H158.089C157.187 98.589 156.183 98.7344 155.078 99.0253C154.001 99.2871 152.969 99.6944 151.979 100.247C150.99 100.8 150.176 101.498 149.536 102.342C148.925 103.156 148.619 104.102 148.619 105.178C148.619 106.574 149.012 107.636 149.798 108.364C150.583 109.062 151.645 109.411 152.983 109.411C153.623 109.411 154.321 109.265 155.078 108.974C155.834 108.654 156.561 108.276 157.259 107.84C157.958 107.404 158.525 106.967 158.961 106.531ZM166.598 109.324C166.598 109.44 166.583 109.527 166.554 109.585C166.263 110.225 165.769 110.72 165.07 111.069C164.401 111.389 163.732 111.549 163.063 111.549C161.841 111.549 160.954 111.2 160.401 110.502C159.878 109.774 159.456 108.887 159.136 107.84C158.03 108.858 156.809 109.716 155.47 110.414C154.132 111.084 152.692 111.418 151.15 111.418C150.074 111.418 149.056 111.214 148.096 110.807C147.165 110.371 146.409 109.745 145.827 108.931C145.245 108.116 144.954 107.127 144.954 105.964C144.954 104.742 145.259 103.694 145.87 102.822C146.51 101.92 147.31 101.164 148.27 100.553C149.259 99.9126 150.307 99.4035 151.412 99.0253C152.547 98.618 153.609 98.3126 154.598 98.109C155.267 97.9635 155.95 97.8326 156.649 97.7162C157.347 97.5999 158.03 97.4835 158.699 97.3671C158.699 96.5526 158.656 95.6071 158.569 94.5308C158.51 93.4544 158.292 92.5671 157.914 91.869C157.536 91.1999 157.027 90.6035 156.387 90.0799C155.747 89.5562 155.034 89.2944 154.249 89.2944C152.91 89.2944 151.863 89.6435 151.107 90.3417C150.35 91.0399 149.812 92.029 149.492 93.309C149.463 93.4544 149.434 93.6144 149.405 93.789C149.405 93.9344 149.39 94.0799 149.361 94.2253C149.332 94.3999 149.216 94.5599 149.012 94.7053C148.838 94.8217 148.649 94.8799 148.445 94.8799C147.892 94.8799 147.383 94.749 146.918 94.4871C146.481 94.2253 146.263 93.789 146.263 93.178C146.263 92.829 146.321 92.5235 146.438 92.2617C146.816 91.3599 147.427 90.618 148.27 90.0362C149.114 89.4253 150.045 88.9599 151.063 88.6399C152.11 88.3199 153.085 88.1599 153.987 88.1599C155.558 88.1599 156.983 88.4508 158.263 89.0326C159.543 89.6144 160.561 90.4726 161.318 91.6071C162.103 92.7126 162.496 94.109 162.496 95.7962C162.496 97.6871 162.481 99.5926 162.452 101.513C162.452 103.433 162.51 105.353 162.627 107.273C162.656 107.913 162.787 108.48 163.019 108.974C163.252 109.44 163.732 109.673 164.459 109.673C164.838 109.673 165.23 109.585 165.638 109.411C166.074 109.207 166.35 109.105 166.467 109.105C166.554 109.105 166.598 109.178 166.598 109.324ZM192.69 110.982C192.69 111.185 192.486 111.331 192.079 111.418C191.672 111.505 191.235 111.564 190.77 111.593C190.333 111.622 190.028 111.636 189.853 111.636C189.446 111.636 188.995 111.636 188.501 111.636C188.006 111.607 187.555 111.534 187.148 111.418C186.77 111.302 186.45 111.098 186.188 110.807C185.955 110.516 185.752 110.225 185.577 109.934C184.268 107.927 182.973 105.92 181.693 103.913C180.413 101.905 179.148 99.8835 177.897 97.8471L175.366 99.7235V109.498C175.366 110.196 175.715 110.545 176.413 110.545C176.675 110.545 176.937 110.545 177.199 110.545C177.461 110.516 177.708 110.502 177.941 110.502C178.086 110.502 178.232 110.545 178.377 110.633C178.552 110.72 178.639 110.851 178.639 111.025C178.639 111.374 178.479 111.549 178.159 111.549C177.344 111.549 176.544 111.549 175.759 111.549C174.973 111.52 174.173 111.505 173.359 111.505C172.806 111.505 172.224 111.52 171.613 111.549C171.032 111.549 170.45 111.564 169.868 111.593C169.693 111.593 169.504 111.607 169.301 111.636C169.126 111.665 168.937 111.68 168.733 111.68C168.617 111.68 168.515 111.622 168.428 111.505C168.37 111.36 168.341 111.229 168.341 111.113C168.341 110.909 168.428 110.778 168.602 110.72C168.777 110.662 168.937 110.633 169.082 110.633C169.228 110.633 169.388 110.647 169.562 110.676C169.737 110.676 169.897 110.676 170.042 110.676C170.508 110.676 170.872 110.633 171.133 110.545C171.395 110.429 171.526 110.109 171.526 109.585V81.4835C171.526 80.8144 171.41 80.3635 171.177 80.1308C170.944 79.898 170.479 79.7817 169.781 79.7817C169.548 79.7817 169.315 79.8108 169.082 79.869C168.85 79.898 168.617 79.9126 168.384 79.9126C168.093 79.9126 167.948 79.7671 167.948 79.4762C167.948 79.2726 168.064 79.1417 168.297 79.0835C168.85 78.938 169.417 78.8362 169.999 78.778C170.61 78.6908 171.192 78.6035 171.744 78.5162C172.006 78.458 172.37 78.3853 172.835 78.298C173.301 78.1817 173.752 78.0799 174.188 77.9926C174.653 77.9053 174.973 77.8617 175.148 77.8617C175.293 77.8617 175.366 77.949 175.366 78.1235L175.322 98.4144C176.806 97.309 178.232 96.1453 179.599 94.9235C180.966 93.7017 182.319 92.4653 183.657 91.2144C184.152 90.778 184.617 90.3417 185.053 89.9053C185.49 89.4399 185.897 88.9599 186.275 88.4653C186.45 88.2617 186.697 88.1599 187.017 88.1599C187.308 88.1599 187.584 88.1744 187.846 88.2035C188.137 88.2326 188.428 88.2471 188.719 88.2471C189.068 88.2471 189.417 88.2326 189.766 88.2035C190.144 88.1744 190.508 88.1599 190.857 88.1599C191.293 88.1599 191.512 88.3926 191.512 88.858C191.512 89.0908 191.337 89.2071 190.988 89.2071C190.522 89.2362 190.072 89.2799 189.635 89.338C189.199 89.3962 188.777 89.5853 188.37 89.9053C187.061 90.8362 185.781 91.8253 184.53 92.8726C183.279 93.9199 182.013 94.9526 180.733 95.9708C181.257 96.8726 181.81 97.7599 182.392 98.6326C182.973 99.4762 183.541 100.32 184.093 101.164C184.879 102.327 185.664 103.491 186.45 104.654C187.264 105.789 188.079 106.924 188.893 108.058C189.301 108.611 189.81 109.164 190.421 109.716C191.061 110.24 191.73 110.531 192.428 110.589C192.602 110.618 192.69 110.749 192.69 110.982ZM103.855 148.676C102.924 146.058 101.993 143.44 101.062 140.822C100.131 138.174 99.2001 135.542 98.2692 132.924C97.3674 135.542 96.451 138.16 95.5201 140.778C94.5892 143.396 93.6728 146.029 92.771 148.676H103.855ZM116.16 160.982C116.16 161.156 116.131 161.316 116.073 161.462C116.044 161.578 115.942 161.636 115.767 161.636C115.564 161.636 115.055 161.622 114.24 161.593C113.455 161.564 112.771 161.549 112.189 161.549C111.287 161.549 110.386 161.549 109.484 161.549C108.611 161.549 107.724 161.578 106.822 161.636C106.356 161.665 105.876 161.68 105.382 161.68C104.916 161.709 104.451 161.724 103.986 161.724C103.84 161.724 103.738 161.68 103.68 161.593C103.651 161.476 103.636 161.36 103.636 161.244L103.68 160.894C103.68 160.807 103.709 160.72 103.767 160.633C103.826 160.516 103.913 160.458 104.029 160.458H106.167C106.429 160.458 106.72 160.4 107.04 160.284C107.389 160.167 107.564 159.949 107.564 159.629C107.564 159.542 107.462 159.207 107.258 158.625C107.055 158.014 106.807 157.287 106.516 156.444C106.226 155.571 105.92 154.698 105.6 153.825C105.28 152.953 105.004 152.182 104.771 151.513C104.538 150.814 104.378 150.364 104.291 150.16H92.3783C92.291 150.422 92.1165 150.902 91.8546 151.6C91.5928 152.269 91.3019 153.04 90.9819 153.913C90.691 154.785 90.3855 155.644 90.0655 156.487C89.7746 157.331 89.5274 158.058 89.3237 158.669C89.1492 159.251 89.0619 159.614 89.0619 159.76C89.0619 160.167 89.2801 160.429 89.7165 160.545C90.1528 160.662 90.5165 160.72 90.8074 160.72C91.0983 160.72 91.3601 160.72 91.5928 160.72C91.8255 160.72 92.0146 160.705 92.1601 160.676C92.2183 160.676 92.3201 160.676 92.4655 160.676C92.6401 160.647 92.7419 160.633 92.771 160.633C92.9455 160.633 93.0474 160.734 93.0765 160.938C93.1346 161.142 93.1492 161.302 93.1201 161.418C93.091 161.534 93.0183 161.607 92.9019 161.636C92.8146 161.636 92.7128 161.636 92.5965 161.636C91.7528 161.636 90.8946 161.622 90.0219 161.593C89.1492 161.564 88.291 161.549 87.4474 161.549C86.8074 161.549 86.1819 161.564 85.571 161.593C84.9601 161.622 84.3346 161.636 83.6946 161.636C83.4328 161.636 83.3019 161.491 83.3019 161.2C83.3019 160.793 83.5055 160.589 83.9128 160.589C84.0583 160.589 84.2328 160.604 84.4365 160.633C84.6401 160.633 84.8583 160.633 85.091 160.633C85.411 160.633 85.731 160.545 86.051 160.371C86.4001 160.167 86.691 159.818 86.9237 159.324C87.0692 159.062 87.3601 158.364 87.7965 157.229C88.2328 156.094 88.771 154.684 89.411 152.996C90.051 151.28 90.7201 149.447 91.4183 147.498C92.1455 145.52 92.8583 143.556 93.5565 141.607C94.2546 139.658 94.8801 137.854 95.4328 136.196C96.0146 134.538 96.4801 133.171 96.8292 132.094C97.1783 130.989 97.3528 130.334 97.3528 130.131C97.3528 130.073 97.3092 130 97.2219 129.913C97.1346 129.796 97.091 129.724 97.091 129.694C97.091 129.578 97.1346 129.505 97.2219 129.476C97.5128 129.418 97.8183 129.374 98.1383 129.345C98.4583 129.316 98.7637 129.287 99.0546 129.258C99.4328 129.2 99.811 129.156 100.189 129.127C100.567 129.069 100.946 129.025 101.324 128.996L112.626 159.542C112.742 159.833 112.96 160.065 113.28 160.24C113.629 160.385 113.949 160.458 114.24 160.458C114.502 160.458 114.764 160.458 115.026 160.458C115.316 160.429 115.607 160.414 115.898 160.414C116.015 160.414 116.087 160.487 116.116 160.633C116.146 160.778 116.16 160.894 116.16 160.982ZM135.684 142.218C135.684 142.509 135.567 142.785 135.335 143.047C135.131 143.28 134.869 143.396 134.549 143.396C134.113 143.396 133.793 143.251 133.589 142.96C133.415 142.669 133.255 142.334 133.109 141.956C132.993 141.578 132.804 141.244 132.542 140.953C132.28 140.662 131.844 140.516 131.233 140.516C131.116 140.516 131 140.516 130.884 140.516C130.796 140.516 130.695 140.531 130.578 140.56C130.084 140.647 129.545 140.953 128.964 141.476C128.382 142 127.815 142.625 127.262 143.353C126.738 144.051 126.302 144.749 125.953 145.447C125.604 146.145 125.415 146.727 125.385 147.193C125.356 147.658 125.342 148.124 125.342 148.589C125.342 149.025 125.342 149.462 125.342 149.898C125.342 151.469 125.342 153.04 125.342 154.611C125.371 156.182 125.385 157.738 125.385 159.28C125.385 159.716 125.56 160.036 125.909 160.24C126.287 160.414 126.665 160.502 127.044 160.502C127.335 160.502 127.625 160.487 127.916 160.458C128.207 160.429 128.498 160.414 128.789 160.414C128.935 160.414 129.036 160.487 129.095 160.633C129.153 160.749 129.182 160.865 129.182 160.982C129.182 161.447 128.949 161.68 128.484 161.68C127.611 161.68 126.738 161.665 125.865 161.636C124.993 161.578 124.12 161.549 123.247 161.549C122.345 161.549 121.429 161.578 120.498 161.636C119.596 161.694 118.68 161.724 117.749 161.724C117.633 161.724 117.545 161.636 117.487 161.462C117.458 161.287 117.444 161.142 117.444 161.025C117.444 160.734 117.56 160.574 117.793 160.545C118.113 160.487 118.447 160.473 118.796 160.502C119.145 160.531 119.465 160.545 119.756 160.545C120.193 160.545 120.542 160.458 120.804 160.284C121.095 160.08 121.255 159.745 121.284 159.28C121.342 158.349 121.371 157.404 121.371 156.444C121.4 155.484 121.415 154.524 121.415 153.564V149.331C121.385 148.08 121.371 146.844 121.371 145.622C121.4 144.371 121.356 143.134 121.24 141.913C121.211 141.331 121.051 140.924 120.76 140.691C120.469 140.429 120.033 140.298 119.451 140.298C119.218 140.298 118.971 140.327 118.709 140.385C118.476 140.414 118.229 140.429 117.967 140.429C117.735 140.429 117.618 140.254 117.618 139.905C117.618 139.702 117.72 139.556 117.924 139.469C118.215 139.382 118.52 139.324 118.84 139.294C119.16 139.236 119.465 139.193 119.756 139.164C120.542 139.018 121.327 138.873 122.113 138.727C122.898 138.582 123.684 138.407 124.469 138.204C124.731 138.291 124.92 138.451 125.036 138.684C125.095 138.8 125.138 139.12 125.167 139.644C125.196 140.167 125.211 140.778 125.211 141.476C125.211 142.145 125.211 142.785 125.211 143.396C125.211 143.978 125.211 144.385 125.211 144.618C125.851 143.6 126.578 142.582 127.393 141.564C128.207 140.545 129.138 139.702 130.185 139.033C131.233 138.364 132.411 138.029 133.72 138.029C134.418 138.029 134.869 138.247 135.073 138.684C135.276 139.12 135.407 139.629 135.465 140.211C135.524 140.531 135.567 140.865 135.596 141.214C135.655 141.564 135.684 141.898 135.684 142.218ZM161.88 160.982C161.88 161.185 161.676 161.331 161.269 161.418C160.862 161.505 160.426 161.564 159.96 161.593C159.524 161.622 159.218 161.636 159.044 161.636C158.636 161.636 158.186 161.636 157.691 161.636C157.196 161.607 156.746 161.534 156.338 161.418C155.96 161.302 155.64 161.098 155.378 160.807C155.146 160.516 154.942 160.225 154.767 159.934C153.458 157.927 152.164 155.92 150.884 153.913C149.604 151.905 148.338 149.884 147.087 147.847L144.556 149.724V159.498C144.556 160.196 144.906 160.545 145.604 160.545C145.866 160.545 146.127 160.545 146.389 160.545C146.651 160.516 146.898 160.502 147.131 160.502C147.276 160.502 147.422 160.545 147.567 160.633C147.742 160.72 147.829 160.851 147.829 161.025C147.829 161.374 147.669 161.549 147.349 161.549C146.535 161.549 145.735 161.549 144.949 161.549C144.164 161.52 143.364 161.505 142.549 161.505C141.996 161.505 141.415 161.52 140.804 161.549C140.222 161.549 139.64 161.564 139.058 161.593C138.884 161.593 138.695 161.607 138.491 161.636C138.316 161.665 138.127 161.68 137.924 161.68C137.807 161.68 137.706 161.622 137.618 161.505C137.56 161.36 137.531 161.229 137.531 161.113C137.531 160.909 137.618 160.778 137.793 160.72C137.967 160.662 138.127 160.633 138.273 160.633C138.418 160.633 138.578 160.647 138.753 160.676C138.927 160.676 139.087 160.676 139.233 160.676C139.698 160.676 140.062 160.633 140.324 160.545C140.586 160.429 140.716 160.109 140.716 159.585V131.484C140.716 130.814 140.6 130.364 140.367 130.131C140.135 129.898 139.669 129.782 138.971 129.782C138.738 129.782 138.506 129.811 138.273 129.869C138.04 129.898 137.807 129.913 137.575 129.913C137.284 129.913 137.138 129.767 137.138 129.476C137.138 129.273 137.255 129.142 137.487 129.084C138.04 128.938 138.607 128.836 139.189 128.778C139.8 128.691 140.382 128.604 140.935 128.516C141.196 128.458 141.56 128.385 142.026 128.298C142.491 128.182 142.942 128.08 143.378 127.993C143.844 127.905 144.164 127.862 144.338 127.862C144.484 127.862 144.556 127.949 144.556 128.124L144.513 148.414C145.996 147.309 147.422 146.145 148.789 144.924C150.156 143.702 151.509 142.465 152.847 141.214C153.342 140.778 153.807 140.342 154.244 139.905C154.68 139.44 155.087 138.96 155.466 138.465C155.64 138.262 155.887 138.16 156.207 138.16C156.498 138.16 156.775 138.174 157.036 138.204C157.327 138.233 157.618 138.247 157.909 138.247C158.258 138.247 158.607 138.233 158.956 138.204C159.335 138.174 159.698 138.16 160.047 138.16C160.484 138.16 160.702 138.393 160.702 138.858C160.702 139.091 160.527 139.207 160.178 139.207C159.713 139.236 159.262 139.28 158.826 139.338C158.389 139.396 157.967 139.585 157.56 139.905C156.251 140.836 154.971 141.825 153.72 142.873C152.469 143.92 151.204 144.953 149.924 145.971C150.447 146.873 151 147.76 151.582 148.633C152.164 149.476 152.731 150.32 153.284 151.164C154.069 152.327 154.855 153.491 155.64 154.654C156.455 155.789 157.269 156.924 158.084 158.058C158.491 158.611 159 159.164 159.611 159.716C160.251 160.24 160.92 160.531 161.618 160.589C161.793 160.618 161.88 160.749 161.88 160.982ZM179.719 146.32C179.689 145.127 179.588 143.993 179.413 142.916C179.239 141.811 178.817 140.909 178.148 140.211C177.479 139.484 176.388 139.12 174.875 139.12C173.508 139.12 172.388 139.498 171.515 140.254C170.671 140.982 170.017 141.913 169.551 143.047C169.086 144.153 168.737 145.287 168.504 146.451C169.231 146.48 169.944 146.509 170.642 146.538C171.34 146.538 172.039 146.538 172.737 146.538C173.9 146.538 175.064 146.524 176.228 146.494C177.391 146.436 178.555 146.378 179.719 146.32ZM184.737 156.313C184.737 156.458 184.708 156.545 184.649 156.574C184.562 156.865 184.344 157.214 183.995 157.622C183.675 158.029 183.311 158.422 182.904 158.8C182.497 159.149 182.162 159.411 181.9 159.585C180.94 160.254 179.849 160.793 178.628 161.2C177.435 161.607 176.242 161.811 175.049 161.811C174.06 161.811 172.955 161.651 171.733 161.331C170.54 161.011 169.522 160.574 168.679 160.022C167.049 158.945 165.857 157.534 165.1 155.789C164.344 154.044 163.966 152.225 163.966 150.334C163.966 148.182 164.388 146.189 165.231 144.356C166.075 142.524 167.428 141.04 169.289 139.905C170.133 139.411 171.079 139.004 172.126 138.684C173.173 138.334 174.177 138.16 175.137 138.16C176.853 138.16 178.366 138.509 179.675 139.207C180.984 139.905 182.002 140.894 182.729 142.174C183.486 143.425 183.864 144.924 183.864 146.669C183.864 147.164 183.748 147.484 183.515 147.629C183.311 147.774 182.991 147.847 182.555 147.847C181.973 147.847 181.391 147.833 180.809 147.804C180.228 147.774 179.646 147.745 179.064 147.716C178.249 147.658 177.435 147.629 176.62 147.629C175.835 147.629 175.035 147.629 174.22 147.629C173.231 147.629 172.242 147.629 171.253 147.629C170.264 147.629 169.275 147.658 168.286 147.716C168.257 148.182 168.228 148.633 168.199 149.069C168.169 149.505 168.155 149.956 168.155 150.422C168.155 151.498 168.286 152.618 168.548 153.782C168.809 154.916 169.231 155.978 169.813 156.967C170.395 157.927 171.137 158.713 172.039 159.324C172.94 159.905 174.031 160.196 175.311 160.196C176.62 160.196 177.871 159.993 179.064 159.585C180.257 159.178 181.348 158.524 182.337 157.622C182.599 157.36 182.831 157.084 183.035 156.793C183.268 156.473 183.515 156.196 183.777 155.964C183.922 155.818 184.082 155.745 184.257 155.745C184.402 155.745 184.519 155.804 184.606 155.92C184.693 156.036 184.737 156.167 184.737 156.313ZM206.246 150.116C206.246 148.865 206.144 147.614 205.941 146.364C205.766 145.084 205.417 143.905 204.893 142.829C204.399 141.753 203.671 140.894 202.711 140.254C201.751 139.585 200.501 139.251 198.959 139.251C197.504 139.251 196.311 139.6 195.381 140.298C194.479 140.996 193.766 141.898 193.242 143.004C192.748 144.109 192.399 145.302 192.195 146.582C192.021 147.862 191.933 149.069 191.933 150.204C191.933 151.454 192.021 152.705 192.195 153.956C192.399 155.207 192.762 156.342 193.286 157.36C193.81 158.349 194.551 159.149 195.511 159.76C196.501 160.371 197.766 160.676 199.308 160.676C200.821 160.676 202.028 160.356 202.93 159.716C203.861 159.076 204.559 158.233 205.024 157.185C205.519 156.138 205.839 155.004 205.984 153.782C206.159 152.531 206.246 151.309 206.246 150.116ZM210.741 150.247C210.741 152.429 210.217 154.393 209.17 156.138C208.151 157.884 206.755 159.265 204.981 160.284C203.235 161.302 201.271 161.811 199.09 161.811C196.966 161.811 195.046 161.302 193.33 160.284C191.613 159.236 190.246 157.854 189.228 156.138C188.21 154.393 187.701 152.458 187.701 150.334C187.701 148.153 188.195 146.145 189.184 144.313C190.173 142.451 191.526 140.953 193.242 139.818C194.988 138.684 196.995 138.116 199.264 138.116C201.708 138.116 203.788 138.64 205.504 139.687C207.221 140.705 208.515 142.131 209.388 143.964C210.29 145.767 210.741 147.862 210.741 150.247ZM226.498 161.069C226.498 161.214 226.455 161.36 226.367 161.505C226.309 161.622 226.193 161.68 226.018 161.68C225.117 161.68 224.2 161.665 223.269 161.636C222.338 161.578 221.407 161.549 220.477 161.549H218.949C218.338 161.549 217.727 161.578 217.117 161.636C216.506 161.665 215.895 161.68 215.284 161.68C215.167 161.68 215.08 161.636 215.022 161.549C214.993 161.433 214.978 161.331 214.978 161.244C214.978 161.156 214.978 161.069 214.978 160.982C214.978 160.894 214.993 160.807 215.022 160.72C215.08 160.604 215.24 160.545 215.502 160.545C215.793 160.516 216.084 160.516 216.375 160.545C216.695 160.545 216.898 160.545 216.986 160.545C217.393 160.545 217.757 160.458 218.077 160.284C218.397 160.08 218.557 159.745 218.557 159.28C218.557 157.04 218.571 154.814 218.6 152.604C218.629 150.364 218.644 148.138 218.644 145.927C218.644 143.658 218.629 141.389 218.6 139.12C218.6 136.822 218.6 134.538 218.6 132.269C218.6 132.065 218.586 131.847 218.557 131.614C218.527 131.353 218.44 131.149 218.295 131.004C218.178 130.858 218.062 130.785 217.946 130.785C217.829 130.756 217.684 130.742 217.509 130.742C216.986 130.742 216.462 130.829 215.938 131.004C215.444 131.178 214.949 131.265 214.455 131.265C214.135 131.265 213.975 131.076 213.975 130.698C213.975 130.465 214.149 130.305 214.498 130.218C214.877 130.131 215.167 130.073 215.371 130.044C216.389 129.811 217.495 129.549 218.687 129.258C219.88 128.967 220.957 128.633 221.917 128.254C221.975 128.254 222.033 128.24 222.091 128.211C222.149 128.182 222.193 128.167 222.222 128.167C222.397 128.167 222.498 128.225 222.527 128.342C222.586 128.458 222.615 128.589 222.615 128.734C222.615 129.549 222.6 130.364 222.571 131.178C222.571 131.964 222.571 132.764 222.571 133.578V145.796C222.571 148.036 222.586 150.291 222.615 152.56C222.644 154.8 222.658 157.04 222.658 159.28C222.658 159.745 222.847 160.08 223.226 160.284C223.633 160.458 224.026 160.545 224.404 160.545C224.724 160.545 225.029 160.531 225.32 160.502C225.611 160.473 225.902 160.458 226.193 160.458C226.338 160.458 226.426 160.545 226.455 160.72C226.484 160.865 226.498 160.982 226.498 161.069ZM248.391 150.116C248.391 148.865 248.289 147.614 248.085 146.364C247.911 145.084 247.562 143.905 247.038 142.829C246.544 141.753 245.816 140.894 244.856 140.254C243.896 139.585 242.645 139.251 241.104 139.251C239.649 139.251 238.456 139.6 237.525 140.298C236.624 140.996 235.911 141.898 235.387 143.004C234.893 144.109 234.544 145.302 234.34 146.582C234.165 147.862 234.078 149.069 234.078 150.204C234.078 151.454 234.165 152.705 234.34 153.956C234.544 155.207 234.907 156.342 235.431 157.36C235.955 158.349 236.696 159.149 237.656 159.76C238.645 160.371 239.911 160.676 241.453 160.676C242.965 160.676 244.173 160.356 245.075 159.716C246.005 159.076 246.704 158.233 247.169 157.185C247.664 156.138 247.984 155.004 248.129 153.782C248.304 152.531 248.391 151.309 248.391 150.116ZM252.885 150.247C252.885 152.429 252.362 154.393 251.315 156.138C250.296 157.884 248.9 159.265 247.125 160.284C245.38 161.302 243.416 161.811 241.235 161.811C239.111 161.811 237.191 161.302 235.475 160.284C233.758 159.236 232.391 157.854 231.373 156.138C230.355 154.393 229.845 152.458 229.845 150.334C229.845 148.153 230.34 146.145 231.329 144.313C232.318 142.451 233.671 140.953 235.387 139.818C237.133 138.684 239.14 138.116 241.409 138.116C243.853 138.116 245.933 138.64 247.649 139.687C249.365 140.705 250.66 142.131 251.533 143.964C252.435 145.767 252.885 147.862 252.885 150.247ZM272.92 163.033C272.92 161.869 272.585 161.04 271.916 160.545C271.276 160.022 270.491 159.687 269.56 159.542C268.629 159.367 267.727 159.236 266.854 159.149L261.967 158.669C261.327 159.367 260.847 160.065 260.527 160.764C260.236 161.433 260.091 162.247 260.091 163.207C260.091 164.604 260.425 165.607 261.094 166.218C261.792 166.858 262.665 167.265 263.712 167.44C264.76 167.614 265.821 167.702 266.898 167.702C267.945 167.702 268.92 167.556 269.821 167.265C270.752 166.974 271.494 166.48 272.047 165.782C272.629 165.113 272.92 164.196 272.92 163.033ZM270.781 145.578C270.781 144.676 270.68 143.716 270.476 142.698C270.272 141.68 269.865 140.807 269.254 140.08C268.672 139.353 267.814 138.989 266.68 138.989C265.4 138.989 264.411 139.324 263.712 139.993C263.014 140.633 262.534 141.462 262.272 142.48C262.04 143.469 261.923 144.502 261.923 145.578C261.923 146.713 262.025 147.789 262.229 148.807C262.461 149.796 262.912 150.611 263.581 151.251C264.28 151.891 265.312 152.211 266.68 152.211C267.523 152.211 268.207 151.993 268.731 151.556C269.283 151.12 269.705 150.567 269.996 149.898C270.287 149.2 270.491 148.473 270.607 147.716C270.723 146.96 270.781 146.247 270.781 145.578ZM278.549 138.422C278.549 139.033 278.418 139.454 278.156 139.687C277.923 139.891 277.603 140.007 277.196 140.036C276.818 140.036 276.411 140.036 275.974 140.036C275.334 140.036 274.68 140.036 274.011 140.036C273.371 140.007 272.716 139.978 272.047 139.949C272.978 140.676 273.661 141.549 274.098 142.567C274.563 143.585 274.796 144.676 274.796 145.84C274.796 147.265 274.389 148.531 273.574 149.636C272.789 150.713 271.771 151.556 270.52 152.167C269.269 152.778 267.974 153.084 266.636 153.084C266.171 153.084 265.72 153.069 265.283 153.04C264.847 152.982 264.396 152.938 263.931 152.909C263.552 153.258 263.116 153.636 262.621 154.044C262.156 154.451 261.923 154.945 261.923 155.527C261.923 155.993 262.141 156.342 262.578 156.574C263.043 156.778 263.552 156.924 264.105 157.011C264.658 157.098 265.094 157.156 265.414 157.185L270.956 157.578C271.945 157.665 272.905 157.884 273.836 158.233C274.796 158.553 275.596 159.062 276.236 159.76C276.876 160.429 277.196 161.345 277.196 162.509C277.196 163.731 276.832 164.749 276.105 165.564C275.407 166.378 274.491 167.033 273.356 167.527C272.251 168.022 271.101 168.371 269.909 168.574C268.716 168.778 267.64 168.88 266.68 168.88C265.923 168.88 264.978 168.836 263.843 168.749C262.709 168.691 261.589 168.516 260.483 168.225C259.378 167.934 258.447 167.469 257.691 166.829C256.963 166.218 256.6 165.374 256.6 164.298C256.6 163.513 256.789 162.771 257.167 162.073C257.545 161.404 258.011 160.778 258.563 160.196C259.145 159.614 259.712 159.105 260.265 158.669C259.945 158.524 259.509 158.305 258.956 158.014C258.432 157.694 258.171 157.331 258.171 156.924C258.171 156.429 258.432 155.876 258.956 155.265C259.509 154.654 260.105 154.073 260.745 153.52C261.385 152.938 261.88 152.487 262.229 152.167C260.745 151.469 259.64 150.582 258.912 149.505C258.214 148.4 257.865 147.033 257.865 145.404C257.865 143.891 258.287 142.596 259.131 141.52C260.003 140.414 261.094 139.571 262.403 138.989C263.741 138.378 265.094 138.073 266.461 138.073C266.956 138.073 267.451 138.116 267.945 138.204C268.44 138.262 268.92 138.364 269.385 138.509C269.618 138.567 269.865 138.654 270.127 138.771C270.418 138.858 270.68 138.916 270.912 138.945C271.116 138.974 271.305 138.989 271.48 138.989C271.683 138.989 271.887 138.989 272.091 138.989C273.138 138.989 274.141 138.916 275.101 138.771C276.061 138.596 276.92 138.102 277.676 137.287C277.851 137.113 277.996 137.025 278.112 137.025C278.345 137.025 278.476 137.229 278.505 137.636C278.534 138.014 278.549 138.276 278.549 138.422Z" fill="#917240"/>
<path d="M93.6203 56.6593C94.3911 56.7138 94.9385 56.7411 95.8034 56.7841C94.4008 51.0104 91.5518 46.3768 87.6095 42.3778C84.2498 38.9698 80.3203 36.3251 75.7419 34.9475C73.3892 34.2396 72.1888 33.1327 72.3523 30.4688C72.8171 30.499 73.3619 30.4427 73.8527 30.5798C86.8363 34.2076 95.3559 42.4623 99.2182 55.3763C99.7667 57.21 100.453 58.0125 102.417 58.3597C111.746 60.009 121.038 61.875 130.314 64.0019C109.299 64.0019 88.2832 64.0019 68.1372 64.0019C70.8971 60.938 74.0029 57.448 77.1851 54.029C77.4732 53.7195 78.2791 53.7281 78.8005 53.8251C83.6714 54.7313 88.5327 55.6891 93.6203 56.6593Z" fill="#917240"/>
<path d="M36.6932 72.9393C35.9223 72.8848 35.375 72.8576 34.5101 72.8145C35.9127 78.5882 38.7617 83.2219 42.704 87.2208C46.0637 90.6288 49.9932 93.2735 54.5716 94.6511C56.9243 95.359 58.1247 96.466 57.9612 99.1299C57.4963 99.0996 56.9515 99.1559 56.4608 99.0188C43.4772 95.391 34.9575 87.1363 31.0952 74.2223C30.5468 72.3886 29.8605 71.5861 27.8966 71.2389C18.5671 69.5897 9.2759 67.7236 -0.000453324 65.5968C21.0149 65.5968 42.0303 65.5968 62.1763 65.5968C59.4164 68.6606 56.3105 72.1507 53.1283 75.5697C52.8403 75.8792 52.0344 75.8706 51.513 75.7736C46.6421 74.8674 41.7808 73.9095 36.6932 72.9393Z" fill="#917240"/>
<path d="M57.0001 36.6932C57.0546 35.9223 57.0819 35.375 57.1249 34.5101C51.3512 35.9127 46.7176 38.7617 42.7186 42.704C39.3107 46.0637 36.6659 49.9932 35.2884 54.5716C34.5805 56.9243 33.4735 58.1247 30.8096 57.9612C30.8398 57.4963 30.7835 56.9515 30.9206 56.4608C34.5484 43.4772 42.8032 34.9575 55.7172 31.0952C57.5509 30.5468 58.3534 29.8605 58.7005 27.8966C60.3498 18.5671 62.2158 9.2759 64.3427 -0.000453324C64.3427 21.0149 64.3427 42.0303 64.3427 62.1763C61.2788 59.4164 57.7888 56.3105 54.3698 53.1283C54.0603 52.8403 54.0689 52.0344 54.1659 51.513C55.0721 46.6421 56.0299 41.7808 57.0001 36.6932Z" fill="#917240"/>
<path d="M76.3341 77.7362C72.9509 95.5887 69.5955 113.249 66.2402 130.909C66.1391 130.899 66.0381 130.888 65.937 130.878C65.937 109.532 65.937 88.1862 65.937 66.8404C66.1105 66.7171 66.284 66.5939 66.4575 66.4707C69.759 70.1618 73.0604 73.8529 76.3341 77.7362Z" fill="#917240"/>
</svg>
