<svg width="184" height="60" viewBox="0 0 184 60" fill="none" xmlns="http://www.w3.org/2000/svg">
<path d="M46.8233 36.7565C46.8233 36.8499 46.8099 36.9232 46.7833 36.9765C46.7699 37.0299 46.7099 37.0565 46.6033 37.0565C46.4033 37.0565 46.2033 37.0565 46.0033 37.0565C45.8166 37.0432 45.6233 37.0365 45.4233 37.0365C45.2366 37.0365 45.0433 37.0899 44.8433 37.1965C44.6566 37.2899 44.5499 37.4499 44.5233 37.6765C44.5099 37.7699 44.5033 37.8699 44.5033 37.9765C44.5166 38.0699 44.5233 38.1699 44.5233 38.2765C44.5233 40.0499 44.5166 41.8232 44.5033 43.5965C44.5033 45.3699 44.5033 47.1499 44.5033 48.9365C44.5033 49.9632 44.3566 50.8899 44.0633 51.7165C43.7833 52.5565 43.3099 53.2165 42.6433 53.6965C41.9766 54.1899 41.0699 54.4365 39.9233 54.4365C39.6833 54.4365 39.3899 54.4299 39.0433 54.4165C38.6966 54.4032 38.3566 54.3565 38.0233 54.2765C37.6899 54.1965 37.4099 54.0565 37.1833 53.8565C36.9566 53.6699 36.8433 53.4032 36.8433 53.0565C36.8433 52.7232 36.9699 52.4565 37.2233 52.2565C37.4766 52.0699 37.7499 51.9765 38.0433 51.9765C38.1499 51.9765 38.2899 52.0032 38.4633 52.0565C38.6499 52.1099 38.8166 52.1832 38.9633 52.2765C39.1099 52.3699 39.1833 52.4832 39.1833 52.6165C39.1299 52.6832 39.0766 52.7565 39.0233 52.8365C38.9699 52.9165 38.9433 53.0099 38.9433 53.1165C38.9433 53.3965 39.0566 53.5899 39.2833 53.6965C39.5099 53.8032 39.7366 53.8565 39.9633 53.8565C40.2833 53.8565 40.6033 53.7899 40.9233 53.6565C41.2433 53.5365 41.5233 53.3565 41.7633 53.1165C42.0166 52.8899 42.1766 52.6099 42.2433 52.2765C42.3099 51.8632 42.3499 51.4499 42.3633 51.0365C42.3766 50.6232 42.3833 50.2099 42.3833 49.7965V37.6765C42.3833 37.4632 42.2966 37.3099 42.1233 37.2165C41.9499 37.1232 41.7499 37.0699 41.5233 37.0565C41.2966 37.0299 41.1099 37.0165 40.9633 37.0165C40.8299 37.0165 40.6966 37.0232 40.5633 37.0365C40.4433 37.0499 40.3233 37.0565 40.2033 37.0565C40.0166 37.0565 39.9233 36.9632 39.9233 36.7765C39.9233 36.5765 40.0099 36.4765 40.1833 36.4765C40.3166 36.4765 40.4499 36.4832 40.5833 36.4965C40.7299 36.5099 40.8699 36.5165 41.0033 36.5165C41.7633 36.5565 42.5299 36.5765 43.3033 36.5765C43.8499 36.5765 44.4033 36.5632 44.9633 36.5365C45.5233 36.4965 46.0766 36.4765 46.6233 36.4765C46.7299 36.4765 46.7899 36.5099 46.8033 36.5765C46.8166 36.6299 46.8233 36.6899 46.8233 36.7565ZM55.1444 44.1165C55.131 43.5699 55.0844 43.0499 55.0044 42.5565C54.9244 42.0499 54.731 41.6365 54.4244 41.3165C54.1177 40.9832 53.6177 40.8165 52.9244 40.8165C52.2977 40.8165 51.7844 40.9899 51.3844 41.3365C50.9977 41.6699 50.6977 42.0965 50.4844 42.6165C50.271 43.1232 50.111 43.6432 50.0044 44.1765C50.3377 44.1899 50.6644 44.2032 50.9844 44.2165C51.3044 44.2165 51.6244 44.2165 51.9444 44.2165C52.4777 44.2165 53.011 44.2099 53.5444 44.1965C54.0777 44.1699 54.611 44.1432 55.1444 44.1165ZM57.4444 48.6965C57.4444 48.7632 57.431 48.8032 57.4044 48.8165C57.3644 48.9499 57.2644 49.1099 57.1044 49.2965C56.9577 49.4832 56.791 49.6632 56.6044 49.8365C56.4177 49.9965 56.2644 50.1165 56.1444 50.1965C55.7044 50.5032 55.2044 50.7499 54.6444 50.9365C54.0977 51.1232 53.551 51.2165 53.0044 51.2165C52.551 51.2165 52.0444 51.1432 51.4844 50.9965C50.9377 50.8499 50.471 50.6499 50.0844 50.3965C49.3377 49.9032 48.791 49.2565 48.4444 48.4565C48.0977 47.6565 47.9244 46.8232 47.9244 45.9565C47.9244 44.9699 48.1177 44.0565 48.5044 43.2165C48.891 42.3765 49.511 41.6965 50.3644 41.1765C50.751 40.9499 51.1844 40.7632 51.6644 40.6165C52.1444 40.4565 52.6044 40.3765 53.0444 40.3765C53.831 40.3765 54.5244 40.5365 55.1244 40.8565C55.7244 41.1765 56.191 41.6299 56.5244 42.2165C56.871 42.7899 57.0444 43.4765 57.0444 44.2765C57.0444 44.5032 56.991 44.6499 56.8844 44.7165C56.791 44.7832 56.6444 44.8165 56.4444 44.8165C56.1777 44.8165 55.911 44.8099 55.6444 44.7965C55.3777 44.7832 55.111 44.7699 54.8444 44.7565C54.471 44.7299 54.0977 44.7165 53.7244 44.7165C53.3644 44.7165 52.9977 44.7165 52.6244 44.7165C52.171 44.7165 51.7177 44.7165 51.2644 44.7165C50.811 44.7165 50.3577 44.7299 49.9044 44.7565C49.891 44.9699 49.8777 45.1765 49.8644 45.3765C49.851 45.5765 49.8444 45.7832 49.8444 45.9965C49.8444 46.4899 49.9044 47.0032 50.0244 47.5365C50.1444 48.0565 50.3377 48.5432 50.6044 48.9965C50.871 49.4365 51.211 49.7965 51.6244 50.0765C52.0377 50.3432 52.5377 50.4765 53.1244 50.4765C53.7244 50.4765 54.2977 50.3832 54.8444 50.1965C55.391 50.0099 55.891 49.7099 56.3444 49.2965C56.4644 49.1765 56.571 49.0499 56.6644 48.9165C56.771 48.7699 56.8844 48.6432 57.0044 48.5365C57.071 48.4699 57.1444 48.4365 57.2244 48.4365C57.291 48.4365 57.3444 48.4632 57.3844 48.5165C57.4244 48.5699 57.4444 48.6299 57.4444 48.6965ZM63.3028 49.6965C63.3028 50.1765 63.2761 50.7232 63.2228 51.3365C63.1828 51.9499 63.0428 52.4699 62.8028 52.8965C62.4295 53.5499 61.9361 54.0365 61.3228 54.3565C60.7228 54.6765 60.0495 54.8365 59.3028 54.8365C58.9828 54.8365 58.6428 54.7965 58.2828 54.7165C57.9228 54.6499 57.6161 54.5099 57.3628 54.2965C57.2695 54.2032 57.1761 54.0832 57.0828 53.9365C56.9761 53.7899 56.9228 53.6499 56.9228 53.5165C56.9228 53.2099 57.0095 52.9765 57.1828 52.8165C57.3428 52.6699 57.5695 52.5965 57.8628 52.5965C58.0095 52.5965 58.0828 52.6699 58.0828 52.8165C58.0828 53.1365 58.1961 53.4565 58.4228 53.7765C58.6495 54.0965 58.9361 54.2565 59.2828 54.2565C59.8695 54.2565 60.3695 54.0832 60.7828 53.7365C61.1961 53.4032 61.4028 52.9299 61.4028 52.3165V41.9565C61.4028 41.7032 61.3561 41.5232 61.2628 41.4165C61.1695 41.3099 60.9895 41.2565 60.7228 41.2565C60.5495 41.2565 60.3695 41.2699 60.1828 41.2965C60.0095 41.3232 59.8295 41.3365 59.6428 41.3365C59.6161 41.3365 59.5828 41.3165 59.5428 41.2765C59.5028 41.2232 59.4828 41.1832 59.4828 41.1565C59.4828 41.0899 59.4895 41.0299 59.5028 40.9765C59.5295 40.9232 59.5761 40.8899 59.6428 40.8765C59.7495 40.8365 59.9295 40.8032 60.1828 40.7765C60.4495 40.7499 60.6495 40.7299 60.7828 40.7165C61.1695 40.6499 61.5495 40.5765 61.9228 40.4965C62.2961 40.4165 62.6695 40.3432 63.0428 40.2765C63.0695 40.2765 63.0961 40.2765 63.1228 40.2765C63.1495 40.2632 63.1695 40.2565 63.1828 40.2565C63.2761 40.2565 63.3228 40.3232 63.3228 40.4565L63.3028 49.6965ZM63.2028 36.9965C63.2028 37.3299 63.0828 37.6165 62.8428 37.8565C62.6161 38.0832 62.3295 38.1965 61.9828 38.1965C61.6495 38.1965 61.3628 38.0832 61.1228 37.8565C60.8828 37.6165 60.7628 37.3299 60.7628 36.9965C60.7628 36.6632 60.8828 36.3832 61.1228 36.1565C61.3628 35.9165 61.6495 35.7965 61.9828 35.7965C62.3161 35.7965 62.6028 35.9165 62.8428 36.1565C63.0828 36.3832 63.2028 36.6632 63.2028 36.9965ZM72.7205 48.7965C72.6671 48.1965 72.6338 47.5965 72.6205 46.9965C72.6205 46.3832 72.6138 45.7699 72.6005 45.1565H72.3205C71.9071 45.1565 71.4471 45.2232 70.9405 45.3565C70.4471 45.4765 69.9738 45.6632 69.5205 45.9165C69.0671 46.1699 68.6938 46.4899 68.4005 46.8765C68.1205 47.2499 67.9805 47.6832 67.9805 48.1765C67.9805 48.8165 68.1605 49.3032 68.5205 49.6365C68.8805 49.9565 69.3671 50.1165 69.9805 50.1165C70.2738 50.1165 70.5938 50.0499 70.9405 49.9165C71.2871 49.7699 71.6205 49.5965 71.9405 49.3965C72.2605 49.1965 72.5205 48.9965 72.7205 48.7965ZM76.2205 50.0765C76.2205 50.1299 76.2138 50.1699 76.2005 50.1965C76.0671 50.4899 75.8405 50.7165 75.5205 50.8765C75.2138 51.0232 74.9071 51.0965 74.6005 51.0965C74.0405 51.0965 73.6338 50.9365 73.3805 50.6165C73.1405 50.2832 72.9471 49.8765 72.8005 49.3965C72.2938 49.8632 71.7338 50.2565 71.1205 50.5765C70.5071 50.8832 69.8471 51.0365 69.1405 51.0365C68.6471 51.0365 68.1805 50.9432 67.7405 50.7565C67.3138 50.5565 66.9671 50.2699 66.7005 49.8965C66.4338 49.5232 66.3005 49.0699 66.3005 48.5365C66.3005 47.9765 66.4405 47.4965 66.7205 47.0965C67.0138 46.6832 67.3805 46.3365 67.8205 46.0565C68.2738 45.7632 68.7538 45.5299 69.2605 45.3565C69.7805 45.1699 70.2671 45.0299 70.7205 44.9365C71.0271 44.8699 71.3405 44.8099 71.6605 44.7565C71.9805 44.7032 72.2938 44.6499 72.6005 44.5965C72.6005 44.2232 72.5805 43.7899 72.5405 43.2965C72.5138 42.8032 72.4138 42.3965 72.2405 42.0765C72.0671 41.7699 71.8338 41.4965 71.5405 41.2565C71.2471 41.0165 70.9205 40.8965 70.5605 40.8965C69.9471 40.8965 69.4671 41.0565 69.1205 41.3765C68.7738 41.6965 68.5271 42.1499 68.3805 42.7365C68.3671 42.8032 68.3538 42.8765 68.3405 42.9565C68.3405 43.0232 68.3338 43.0899 68.3205 43.1565C68.3071 43.2365 68.2538 43.3099 68.1605 43.3765C68.0805 43.4299 67.9938 43.4565 67.9005 43.4565C67.6471 43.4565 67.4138 43.3965 67.2005 43.2765C67.0005 43.1565 66.9005 42.9565 66.9005 42.6765C66.9005 42.5165 66.9271 42.3765 66.9805 42.2565C67.1538 41.8432 67.4338 41.5032 67.8205 41.2365C68.2071 40.9565 68.6338 40.7432 69.1005 40.5965C69.5805 40.4499 70.0271 40.3765 70.4405 40.3765C71.1605 40.3765 71.8138 40.5099 72.4005 40.7765C72.9871 41.0432 73.4538 41.4365 73.8005 41.9565C74.1605 42.4632 74.3405 43.1032 74.3405 43.8765C74.3405 44.7432 74.3338 45.6165 74.3205 46.4965C74.3205 47.3765 74.3471 48.2565 74.4005 49.1365C74.4138 49.4299 74.4738 49.6899 74.5805 49.9165C74.6871 50.1299 74.9071 50.2365 75.2405 50.2365C75.4138 50.2365 75.5938 50.1965 75.7805 50.1165C75.9805 50.0232 76.1071 49.9765 76.1605 49.9765C76.2005 49.9765 76.2205 50.0099 76.2205 50.0765ZM88.1794 50.8365C88.1794 50.9299 88.086 50.9965 87.8994 51.0365C87.7127 51.0765 87.5127 51.1032 87.2994 51.1165C87.0994 51.1299 86.9594 51.1365 86.8794 51.1365C86.6927 51.1365 86.486 51.1365 86.2594 51.1365C86.0327 51.1232 85.826 51.0899 85.6394 51.0365C85.466 50.9832 85.3194 50.8899 85.1994 50.7565C85.0927 50.6232 84.9994 50.4899 84.9194 50.3565C84.3194 49.4365 83.726 48.5165 83.1394 47.5965C82.5527 46.6765 81.9727 45.7499 81.3994 44.8165L80.2394 45.6765V50.1565C80.2394 50.4765 80.3994 50.6365 80.7194 50.6365C80.8394 50.6365 80.9594 50.6365 81.0794 50.6365C81.1994 50.6232 81.3127 50.6165 81.4194 50.6165C81.486 50.6165 81.5527 50.6365 81.6194 50.6765C81.6994 50.7165 81.7394 50.7765 81.7394 50.8565C81.7394 51.0165 81.666 51.0965 81.5194 51.0965C81.146 51.0965 80.7794 51.0965 80.4194 51.0965C80.0594 51.0832 79.6927 51.0765 79.3194 51.0765C79.066 51.0765 78.7994 51.0832 78.5194 51.0965C78.2527 51.0965 77.986 51.1032 77.7194 51.1165C77.6394 51.1165 77.5527 51.1232 77.4594 51.1365C77.3794 51.1499 77.2927 51.1565 77.1994 51.1565C77.146 51.1565 77.0994 51.1299 77.0594 51.0765C77.0327 51.0099 77.0194 50.9499 77.0194 50.8965C77.0194 50.8032 77.0594 50.7432 77.1394 50.7165C77.2194 50.6899 77.2927 50.6765 77.3594 50.6765C77.426 50.6765 77.4994 50.6832 77.5794 50.6965C77.6594 50.6965 77.7327 50.6965 77.7994 50.6965C78.0127 50.6965 78.1794 50.6765 78.2994 50.6365C78.4194 50.5832 78.4794 50.4365 78.4794 50.1965V37.3165C78.4794 37.0099 78.426 36.8032 78.3194 36.6965C78.2127 36.5899 77.9994 36.5365 77.6794 36.5365C77.5727 36.5365 77.466 36.5499 77.3594 36.5765C77.2527 36.5899 77.146 36.5965 77.0394 36.5965C76.906 36.5965 76.8394 36.5299 76.8394 36.3965C76.8394 36.3032 76.8927 36.2432 76.9994 36.2165C77.2527 36.1499 77.5127 36.1032 77.7794 36.0765C78.0594 36.0365 78.326 35.9965 78.5794 35.9565C78.6994 35.9299 78.866 35.8965 79.0794 35.8565C79.2927 35.8032 79.4994 35.7565 79.6994 35.7165C79.9127 35.6765 80.0594 35.6565 80.1394 35.6565C80.206 35.6565 80.2394 35.6965 80.2394 35.7765L80.2194 45.0765C80.8994 44.5699 81.5527 44.0365 82.1794 43.4765C82.806 42.9165 83.426 42.3499 84.0394 41.7765C84.266 41.5765 84.4794 41.3765 84.6794 41.1765C84.8794 40.9632 85.066 40.7432 85.2394 40.5165C85.3194 40.4232 85.4327 40.3765 85.5794 40.3765C85.7127 40.3765 85.8394 40.3832 85.9594 40.3965C86.0927 40.4099 86.226 40.4165 86.3594 40.4165C86.5194 40.4165 86.6794 40.4099 86.8394 40.3965C87.0127 40.3832 87.1794 40.3765 87.3394 40.3765C87.5394 40.3765 87.6394 40.4832 87.6394 40.6965C87.6394 40.8032 87.5594 40.8565 87.3994 40.8565C87.186 40.8699 86.9794 40.8899 86.7794 40.9165C86.5794 40.9432 86.386 41.0299 86.1994 41.1765C85.5994 41.6032 85.0127 42.0565 84.4394 42.5365C83.866 43.0165 83.286 43.4899 82.6994 43.9565C82.9394 44.3699 83.1927 44.7765 83.4594 45.1765C83.726 45.5632 83.986 45.9499 84.2394 46.3365C84.5994 46.8699 84.9594 47.4032 85.3194 47.9365C85.6927 48.4565 86.066 48.9765 86.4394 49.4965C86.626 49.7499 86.8594 50.0032 87.1394 50.2565C87.4327 50.4965 87.7394 50.6299 88.0594 50.6565C88.1394 50.6699 88.1794 50.7299 88.1794 50.8365ZM102.795 45.1965C102.369 43.9965 101.942 42.7965 101.515 41.5965C101.089 40.3832 100.662 39.1765 100.235 37.9765C99.822 39.1765 99.402 40.3765 98.9753 41.5765C98.5486 42.7765 98.1286 43.9832 97.7153 45.1965H102.795ZM108.435 50.8365C108.435 50.9165 108.422 50.9899 108.395 51.0565C108.382 51.1099 108.335 51.1365 108.255 51.1365C108.162 51.1365 107.929 51.1299 107.555 51.1165C107.195 51.1032 106.882 51.0965 106.615 51.0965C106.202 51.0965 105.789 51.0965 105.375 51.0965C104.975 51.0965 104.569 51.1099 104.155 51.1365C103.942 51.1499 103.722 51.1565 103.495 51.1565C103.282 51.1699 103.069 51.1765 102.855 51.1765C102.789 51.1765 102.742 51.1565 102.715 51.1165C102.702 51.0632 102.695 51.0099 102.695 50.9565L102.715 50.7965C102.715 50.7565 102.729 50.7165 102.755 50.6765C102.782 50.6232 102.822 50.5965 102.875 50.5965H103.855C103.975 50.5965 104.109 50.5699 104.255 50.5165C104.415 50.4632 104.495 50.3632 104.495 50.2165C104.495 50.1765 104.449 50.0232 104.355 49.7565C104.262 49.4765 104.149 49.1432 104.015 48.7565C103.882 48.3565 103.742 47.9565 103.595 47.5565C103.449 47.1565 103.322 46.8032 103.215 46.4965C103.109 46.1765 103.035 45.9699 102.995 45.8765H97.5353C97.4953 45.9965 97.4153 46.2165 97.2953 46.5365C97.1753 46.8432 97.042 47.1965 96.8953 47.5965C96.762 47.9965 96.622 48.3899 96.4753 48.7765C96.342 49.1632 96.2286 49.4965 96.1353 49.7765C96.0553 50.0432 96.0153 50.2099 96.0153 50.2765C96.0153 50.4632 96.1153 50.5832 96.3153 50.6365C96.5153 50.6899 96.682 50.7165 96.8153 50.7165C96.9486 50.7165 97.0686 50.7165 97.1753 50.7165C97.282 50.7165 97.3686 50.7099 97.4353 50.6965C97.462 50.6965 97.5086 50.6965 97.5753 50.6965C97.6553 50.6832 97.702 50.6765 97.7153 50.6765C97.7953 50.6765 97.842 50.7232 97.8553 50.8165C97.882 50.9099 97.8886 50.9832 97.8753 51.0365C97.862 51.0899 97.8286 51.1232 97.7753 51.1365C97.7353 51.1365 97.6886 51.1365 97.6353 51.1365C97.2486 51.1365 96.8553 51.1299 96.4553 51.1165C96.0553 51.1032 95.662 51.0965 95.2753 51.0965C94.982 51.0965 94.6953 51.1032 94.4153 51.1165C94.1353 51.1299 93.8486 51.1365 93.5553 51.1365C93.4353 51.1365 93.3753 51.0699 93.3753 50.9365C93.3753 50.7499 93.4686 50.6565 93.6553 50.6565C93.722 50.6565 93.802 50.6632 93.8953 50.6765C93.9886 50.6765 94.0886 50.6765 94.1953 50.6765C94.342 50.6765 94.4886 50.6365 94.6353 50.5565C94.7953 50.4632 94.9286 50.3032 95.0353 50.0765C95.102 49.9565 95.2353 49.6365 95.4353 49.1165C95.6353 48.5965 95.882 47.9499 96.1753 47.1765C96.4686 46.3899 96.7753 45.5499 97.0953 44.6565C97.4286 43.7499 97.7553 42.8499 98.0753 41.9565C98.3953 41.0632 98.682 40.2365 98.9353 39.4765C99.202 38.7165 99.4153 38.0899 99.5753 37.5965C99.7353 37.0899 99.8153 36.7899 99.8153 36.6965C99.8153 36.6699 99.7953 36.6365 99.7553 36.5965C99.7153 36.5432 99.6953 36.5099 99.6953 36.4965C99.6953 36.4432 99.7153 36.4099 99.7553 36.3965C99.8886 36.3699 100.029 36.3499 100.175 36.3365C100.322 36.3232 100.462 36.3099 100.595 36.2965C100.769 36.2699 100.942 36.2499 101.115 36.2365C101.289 36.2099 101.462 36.1899 101.635 36.1765L106.815 50.1765C106.869 50.3099 106.969 50.4165 107.115 50.4965C107.275 50.5632 107.422 50.5965 107.555 50.5965C107.675 50.5965 107.795 50.5965 107.915 50.5965C108.049 50.5832 108.182 50.5765 108.315 50.5765C108.369 50.5765 108.402 50.6099 108.415 50.6765C108.429 50.7432 108.435 50.7965 108.435 50.8365ZM117.384 42.2365C117.384 42.3699 117.33 42.4965 117.224 42.6165C117.13 42.7232 117.01 42.7765 116.864 42.7765C116.664 42.7765 116.517 42.7099 116.424 42.5765C116.344 42.4432 116.27 42.2899 116.204 42.1165C116.15 41.9432 116.064 41.7899 115.944 41.6565C115.824 41.5232 115.624 41.4565 115.344 41.4565C115.29 41.4565 115.237 41.4565 115.184 41.4565C115.144 41.4565 115.097 41.4632 115.044 41.4765C114.817 41.5165 114.57 41.6565 114.304 41.8965C114.037 42.1365 113.777 42.4232 113.524 42.7565C113.284 43.0765 113.084 43.3965 112.924 43.7165C112.764 44.0365 112.677 44.3032 112.664 44.5165C112.65 44.7299 112.644 44.9432 112.644 45.1565C112.644 45.3565 112.644 45.5565 112.644 45.7565C112.644 46.4765 112.644 47.1965 112.644 47.9165C112.657 48.6365 112.664 49.3499 112.664 50.0565C112.664 50.2565 112.744 50.4032 112.904 50.4965C113.077 50.5765 113.25 50.6165 113.424 50.6165C113.557 50.6165 113.69 50.6099 113.824 50.5965C113.957 50.5832 114.09 50.5765 114.224 50.5765C114.29 50.5765 114.337 50.6099 114.364 50.6765C114.39 50.7299 114.404 50.7832 114.404 50.8365C114.404 51.0499 114.297 51.1565 114.084 51.1565C113.684 51.1565 113.284 51.1499 112.884 51.1365C112.484 51.1099 112.084 51.0965 111.684 51.0965C111.27 51.0965 110.85 51.1099 110.424 51.1365C110.01 51.1632 109.59 51.1765 109.164 51.1765C109.11 51.1765 109.07 51.1365 109.044 51.0565C109.03 50.9765 109.024 50.9099 109.024 50.8565C109.024 50.7232 109.077 50.6499 109.184 50.6365C109.33 50.6099 109.484 50.6032 109.644 50.6165C109.804 50.6299 109.95 50.6365 110.084 50.6365C110.284 50.6365 110.444 50.5965 110.564 50.5165C110.697 50.4232 110.77 50.2699 110.784 50.0565C110.81 49.6299 110.824 49.1965 110.824 48.7565C110.837 48.3165 110.844 47.8765 110.844 47.4365V45.4965C110.83 44.9232 110.824 44.3565 110.824 43.7965C110.837 43.2232 110.817 42.6565 110.764 42.0965C110.75 41.8299 110.677 41.6432 110.544 41.5365C110.41 41.4165 110.21 41.3565 109.944 41.3565C109.837 41.3565 109.724 41.3699 109.604 41.3965C109.497 41.4099 109.384 41.4165 109.264 41.4165C109.157 41.4165 109.104 41.3365 109.104 41.1765C109.104 41.0832 109.15 41.0165 109.244 40.9765C109.377 40.9365 109.517 40.9099 109.664 40.8965C109.81 40.8699 109.95 40.8499 110.084 40.8365C110.444 40.7699 110.804 40.7032 111.164 40.6365C111.524 40.5699 111.884 40.4899 112.244 40.3965C112.364 40.4365 112.45 40.5099 112.504 40.6165C112.53 40.6699 112.55 40.8165 112.564 41.0565C112.577 41.2965 112.584 41.5765 112.584 41.8965C112.584 42.2032 112.584 42.4965 112.584 42.7765C112.584 43.0432 112.584 43.2299 112.584 43.3365C112.877 42.8699 113.21 42.4032 113.584 41.9365C113.957 41.4699 114.384 41.0832 114.864 40.7765C115.344 40.4699 115.884 40.3165 116.484 40.3165C116.804 40.3165 117.01 40.4165 117.104 40.6165C117.197 40.8165 117.257 41.0499 117.284 41.3165C117.31 41.4632 117.33 41.6165 117.344 41.7765C117.37 41.9365 117.384 42.0899 117.384 42.2365ZM129.39 50.8365C129.39 50.9299 129.297 50.9965 129.11 51.0365C128.924 51.0765 128.724 51.1032 128.51 51.1165C128.31 51.1299 128.17 51.1365 128.09 51.1365C127.904 51.1365 127.697 51.1365 127.47 51.1365C127.244 51.1232 127.037 51.0899 126.85 51.0365C126.677 50.9832 126.53 50.8899 126.41 50.7565C126.304 50.6232 126.21 50.4899 126.13 50.3565C125.53 49.4365 124.937 48.5165 124.35 47.5965C123.764 46.6765 123.184 45.7499 122.61 44.8165L121.45 45.6765V50.1565C121.45 50.4765 121.61 50.6365 121.93 50.6365C122.05 50.6365 122.17 50.6365 122.29 50.6365C122.41 50.6232 122.524 50.6165 122.63 50.6165C122.697 50.6165 122.764 50.6365 122.83 50.6765C122.91 50.7165 122.95 50.7765 122.95 50.8565C122.95 51.0165 122.877 51.0965 122.73 51.0965C122.357 51.0965 121.99 51.0965 121.63 51.0965C121.27 51.0832 120.904 51.0765 120.53 51.0765C120.277 51.0765 120.01 51.0832 119.73 51.0965C119.464 51.0965 119.197 51.1032 118.93 51.1165C118.85 51.1165 118.764 51.1232 118.67 51.1365C118.59 51.1499 118.504 51.1565 118.41 51.1565C118.357 51.1565 118.31 51.1299 118.27 51.0765C118.244 51.0099 118.23 50.9499 118.23 50.8965C118.23 50.8032 118.27 50.7432 118.35 50.7165C118.43 50.6899 118.504 50.6765 118.57 50.6765C118.637 50.6765 118.71 50.6832 118.79 50.6965C118.87 50.6965 118.944 50.6965 119.01 50.6965C119.224 50.6965 119.39 50.6765 119.51 50.6365C119.63 50.5832 119.69 50.4365 119.69 50.1965V37.3165C119.69 37.0099 119.637 36.8032 119.53 36.6965C119.424 36.5899 119.21 36.5365 118.89 36.5365C118.784 36.5365 118.677 36.5499 118.57 36.5765C118.464 36.5899 118.357 36.5965 118.25 36.5965C118.117 36.5965 118.05 36.5299 118.05 36.3965C118.05 36.3032 118.104 36.2432 118.21 36.2165C118.464 36.1499 118.724 36.1032 118.99 36.0765C119.27 36.0365 119.537 35.9965 119.79 35.9565C119.91 35.9299 120.077 35.8965 120.29 35.8565C120.504 35.8032 120.71 35.7565 120.91 35.7165C121.124 35.6765 121.27 35.6565 121.35 35.6565C121.417 35.6565 121.45 35.6965 121.45 35.7765L121.43 45.0765C122.11 44.5699 122.764 44.0365 123.39 43.4765C124.017 42.9165 124.637 42.3499 125.25 41.7765C125.477 41.5765 125.69 41.3765 125.89 41.1765C126.09 40.9632 126.277 40.7432 126.45 40.5165C126.53 40.4232 126.644 40.3765 126.79 40.3765C126.924 40.3765 127.05 40.3832 127.17 40.3965C127.304 40.4099 127.437 40.4165 127.57 40.4165C127.73 40.4165 127.89 40.4099 128.05 40.3965C128.224 40.3832 128.39 40.3765 128.55 40.3765C128.75 40.3765 128.85 40.4832 128.85 40.6965C128.85 40.8032 128.77 40.8565 128.61 40.8565C128.397 40.8699 128.19 40.8899 127.99 40.9165C127.79 40.9432 127.597 41.0299 127.41 41.1765C126.81 41.6032 126.224 42.0565 125.65 42.5365C125.077 43.0165 124.497 43.4899 123.91 43.9565C124.15 44.3699 124.404 44.7765 124.67 45.1765C124.937 45.5632 125.197 45.9499 125.45 46.3365C125.81 46.8699 126.17 47.4032 126.53 47.9365C126.904 48.4565 127.277 48.9765 127.65 49.4965C127.837 49.7499 128.07 50.0032 128.35 50.2565C128.644 50.4965 128.95 50.6299 129.27 50.6565C129.35 50.6699 129.39 50.7299 129.39 50.8365ZM137.566 44.1165C137.553 43.5699 137.506 43.0499 137.426 42.5565C137.346 42.0499 137.153 41.6365 136.846 41.3165C136.54 40.9832 136.04 40.8165 135.346 40.8165C134.72 40.8165 134.206 40.9899 133.806 41.3365C133.42 41.6699 133.12 42.0965 132.906 42.6165C132.693 43.1232 132.533 43.6432 132.426 44.1765C132.76 44.1899 133.086 44.2032 133.406 44.2165C133.726 44.2165 134.046 44.2165 134.366 44.2165C134.9 44.2165 135.433 44.2099 135.966 44.1965C136.5 44.1699 137.033 44.1432 137.566 44.1165ZM139.866 48.6965C139.866 48.7632 139.853 48.8032 139.826 48.8165C139.786 48.9499 139.686 49.1099 139.526 49.2965C139.38 49.4832 139.213 49.6632 139.026 49.8365C138.84 49.9965 138.686 50.1165 138.566 50.1965C138.126 50.5032 137.626 50.7499 137.066 50.9365C136.52 51.1232 135.973 51.2165 135.426 51.2165C134.973 51.2165 134.466 51.1432 133.906 50.9965C133.36 50.8499 132.893 50.6499 132.506 50.3965C131.76 49.9032 131.213 49.2565 130.866 48.4565C130.52 47.6565 130.346 46.8232 130.346 45.9565C130.346 44.9699 130.54 44.0565 130.926 43.2165C131.313 42.3765 131.933 41.6965 132.786 41.1765C133.173 40.9499 133.606 40.7632 134.086 40.6165C134.566 40.4565 135.026 40.3765 135.466 40.3765C136.253 40.3765 136.946 40.5365 137.546 40.8565C138.146 41.1765 138.613 41.6299 138.946 42.2165C139.293 42.7899 139.466 43.4765 139.466 44.2765C139.466 44.5032 139.413 44.6499 139.306 44.7165C139.213 44.7832 139.066 44.8165 138.866 44.8165C138.6 44.8165 138.333 44.8099 138.066 44.7965C137.8 44.7832 137.533 44.7699 137.266 44.7565C136.893 44.7299 136.52 44.7165 136.146 44.7165C135.786 44.7165 135.42 44.7165 135.046 44.7165C134.593 44.7165 134.14 44.7165 133.686 44.7165C133.233 44.7165 132.78 44.7299 132.326 44.7565C132.313 44.9699 132.3 45.1765 132.286 45.3765C132.273 45.5765 132.266 45.7832 132.266 45.9965C132.266 46.4899 132.326 47.0032 132.446 47.5365C132.566 48.0565 132.76 48.5432 133.026 48.9965C133.293 49.4365 133.633 49.7965 134.046 50.0765C134.46 50.3432 134.96 50.4765 135.546 50.4765C136.146 50.4765 136.72 50.3832 137.266 50.1965C137.813 50.0099 138.313 49.7099 138.766 49.2965C138.886 49.1765 138.993 49.0499 139.086 48.9165C139.193 48.7699 139.306 48.6432 139.426 48.5365C139.493 48.4699 139.566 48.4365 139.646 48.4365C139.713 48.4365 139.766 48.4632 139.806 48.5165C139.846 48.5699 139.866 48.6299 139.866 48.6965ZM149.725 45.8565C149.725 45.2832 149.678 44.7099 149.585 44.1365C149.505 43.5499 149.345 43.0099 149.105 42.5165C148.878 42.0232 148.545 41.6299 148.105 41.3365C147.665 41.0299 147.091 40.8765 146.385 40.8765C145.718 40.8765 145.171 41.0365 144.745 41.3565C144.331 41.6765 144.005 42.0899 143.765 42.5965C143.538 43.1032 143.378 43.6499 143.285 44.2365C143.205 44.8232 143.165 45.3765 143.165 45.8965C143.165 46.4699 143.205 47.0432 143.285 47.6165C143.378 48.1899 143.545 48.7099 143.785 49.1765C144.025 49.6299 144.365 49.9965 144.805 50.2765C145.258 50.5565 145.838 50.6965 146.545 50.6965C147.238 50.6965 147.791 50.5499 148.205 50.2565C148.631 49.9632 148.951 49.5765 149.165 49.0965C149.391 48.6165 149.538 48.0965 149.605 47.5365C149.685 46.9632 149.725 46.4032 149.725 45.8565ZM151.785 45.9165C151.785 46.9165 151.545 47.8165 151.065 48.6165C150.598 49.4165 149.958 50.0499 149.145 50.5165C148.345 50.9832 147.445 51.2165 146.445 51.2165C145.471 51.2165 144.591 50.9832 143.805 50.5165C143.018 50.0365 142.391 49.4032 141.925 48.6165C141.458 47.8165 141.225 46.9299 141.225 45.9565C141.225 44.9565 141.451 44.0365 141.905 43.1965C142.358 42.3432 142.978 41.6565 143.765 41.1365C144.565 40.6165 145.485 40.3565 146.525 40.3565C147.645 40.3565 148.598 40.5965 149.385 41.0765C150.171 41.5432 150.765 42.1965 151.165 43.0365C151.578 43.8632 151.785 44.8232 151.785 45.9165ZM159.007 50.8765C159.007 50.9432 158.987 51.0099 158.947 51.0765C158.92 51.1299 158.867 51.1565 158.787 51.1565C158.374 51.1565 157.954 51.1499 157.527 51.1365C157.1 51.1099 156.674 51.0965 156.247 51.0965H155.547C155.267 51.0965 154.987 51.1099 154.707 51.1365C154.427 51.1499 154.147 51.1565 153.867 51.1565C153.814 51.1565 153.774 51.1365 153.747 51.0965C153.734 51.0432 153.727 50.9965 153.727 50.9565C153.727 50.9165 153.727 50.8765 153.727 50.8365C153.727 50.7965 153.734 50.7565 153.747 50.7165C153.774 50.6632 153.847 50.6365 153.967 50.6365C154.1 50.6232 154.234 50.6232 154.367 50.6365C154.514 50.6365 154.607 50.6365 154.647 50.6365C154.834 50.6365 155 50.5965 155.147 50.5165C155.294 50.4232 155.367 50.2699 155.367 50.0565C155.367 49.0299 155.374 48.0099 155.387 46.9965C155.4 45.9699 155.407 44.9499 155.407 43.9365C155.407 42.8965 155.4 41.8565 155.387 40.8165C155.387 39.7632 155.387 38.7165 155.387 37.6765C155.387 37.5832 155.38 37.4832 155.367 37.3765C155.354 37.2565 155.314 37.1632 155.247 37.0965C155.194 37.0299 155.14 36.9965 155.087 36.9965C155.034 36.9832 154.967 36.9765 154.887 36.9765C154.647 36.9765 154.407 37.0165 154.167 37.0965C153.94 37.1765 153.714 37.2165 153.487 37.2165C153.34 37.2165 153.267 37.1299 153.267 36.9565C153.267 36.8499 153.347 36.7765 153.507 36.7365C153.68 36.6965 153.814 36.6699 153.907 36.6565C154.374 36.5499 154.88 36.4299 155.427 36.2965C155.974 36.1632 156.467 36.0099 156.907 35.8365C156.934 35.8365 156.96 35.8299 156.987 35.8165C157.014 35.8032 157.034 35.7965 157.047 35.7965C157.127 35.7965 157.174 35.8232 157.187 35.8765C157.214 35.9299 157.227 35.9899 157.227 36.0565C157.227 36.4299 157.22 36.8032 157.207 37.1765C157.207 37.5365 157.207 37.9032 157.207 38.2765V43.8765C157.207 44.9032 157.214 45.9365 157.227 46.9765C157.24 48.0032 157.247 49.0299 157.247 50.0565C157.247 50.2699 157.334 50.4232 157.507 50.5165C157.694 50.5965 157.874 50.6365 158.047 50.6365C158.194 50.6365 158.334 50.6299 158.467 50.6165C158.6 50.6032 158.734 50.5965 158.867 50.5965C158.934 50.5965 158.974 50.6365 158.987 50.7165C159 50.7832 159.007 50.8365 159.007 50.8765ZM169.041 45.8565C169.041 45.2832 168.994 44.7099 168.901 44.1365C168.821 43.5499 168.661 43.0099 168.421 42.5165C168.194 42.0232 167.861 41.6299 167.421 41.3365C166.981 41.0299 166.408 40.8765 165.701 40.8765C165.034 40.8765 164.488 41.0365 164.061 41.3565C163.648 41.6765 163.321 42.0899 163.081 42.5965C162.854 43.1032 162.694 43.6499 162.601 44.2365C162.521 44.8232 162.481 45.3765 162.481 45.8965C162.481 46.4699 162.521 47.0432 162.601 47.6165C162.694 48.1899 162.861 48.7099 163.101 49.1765C163.341 49.6299 163.681 49.9965 164.121 50.2765C164.574 50.5565 165.154 50.6965 165.861 50.6965C166.554 50.6965 167.108 50.5499 167.521 50.2565C167.948 49.9632 168.268 49.5765 168.481 49.0965C168.708 48.6165 168.854 48.0965 168.921 47.5365C169.001 46.9632 169.041 46.4032 169.041 45.8565ZM171.101 45.9165C171.101 46.9165 170.861 47.8165 170.381 48.6165C169.914 49.4165 169.274 50.0499 168.461 50.5165C167.661 50.9832 166.761 51.2165 165.761 51.2165C164.788 51.2165 163.908 50.9832 163.121 50.5165C162.334 50.0365 161.708 49.4032 161.241 48.6165C160.774 47.8165 160.541 46.9299 160.541 45.9565C160.541 44.9565 160.768 44.0365 161.221 43.1965C161.674 42.3432 162.294 41.6565 163.081 41.1365C163.881 40.6165 164.801 40.3565 165.841 40.3565C166.961 40.3565 167.914 40.5965 168.701 41.0765C169.488 41.5432 170.081 42.1965 170.481 43.0365C170.894 43.8632 171.101 44.8232 171.101 45.9165ZM180.283 51.7765C180.283 51.2432 180.13 50.8632 179.823 50.6365C179.53 50.3965 179.17 50.2432 178.743 50.1765C178.317 50.0965 177.903 50.0365 177.503 49.9965L175.263 49.7765C174.97 50.0965 174.75 50.4165 174.603 50.7365C174.47 51.0432 174.403 51.4165 174.403 51.8565C174.403 52.4965 174.557 52.9565 174.863 53.2365C175.183 53.5299 175.583 53.7165 176.063 53.7965C176.543 53.8765 177.03 53.9165 177.523 53.9165C178.003 53.9165 178.45 53.8499 178.863 53.7165C179.29 53.5832 179.63 53.3565 179.883 53.0365C180.15 52.7299 180.283 52.3099 180.283 51.7765ZM179.303 43.7765C179.303 43.3632 179.257 42.9232 179.163 42.4565C179.07 41.9899 178.883 41.5899 178.603 41.2565C178.337 40.9232 177.943 40.7565 177.423 40.7565C176.837 40.7565 176.383 40.9099 176.063 41.2165C175.743 41.5099 175.523 41.8899 175.403 42.3565C175.297 42.8099 175.243 43.2832 175.243 43.7765C175.243 44.2965 175.29 44.7899 175.383 45.2565C175.49 45.7099 175.697 46.0832 176.003 46.3765C176.323 46.6699 176.797 46.8165 177.423 46.8165C177.81 46.8165 178.123 46.7165 178.363 46.5165C178.617 46.3165 178.81 46.0632 178.943 45.7565C179.077 45.4365 179.17 45.1032 179.223 44.7565C179.277 44.4099 179.303 44.0832 179.303 43.7765ZM182.863 40.4965C182.863 40.7765 182.803 40.9699 182.683 41.0765C182.577 41.1699 182.43 41.2232 182.243 41.2365C182.07 41.2365 181.883 41.2365 181.683 41.2365C181.39 41.2365 181.09 41.2365 180.783 41.2365C180.49 41.2232 180.19 41.2099 179.883 41.1965C180.31 41.5299 180.623 41.9299 180.823 42.3965C181.037 42.8632 181.143 43.3632 181.143 43.8965C181.143 44.5499 180.957 45.1299 180.583 45.6365C180.223 46.1299 179.757 46.5165 179.183 46.7965C178.61 47.0765 178.017 47.2165 177.403 47.2165C177.19 47.2165 176.983 47.2099 176.783 47.1965C176.583 47.1699 176.377 47.1499 176.163 47.1365C175.99 47.2965 175.79 47.4699 175.563 47.6565C175.35 47.8432 175.243 48.0699 175.243 48.3365C175.243 48.5499 175.343 48.7099 175.543 48.8165C175.757 48.9099 175.99 48.9765 176.243 49.0165C176.497 49.0565 176.697 49.0832 176.843 49.0965L179.383 49.2765C179.837 49.3165 180.277 49.4165 180.703 49.5765C181.143 49.7232 181.51 49.9565 181.803 50.2765C182.097 50.5832 182.243 51.0032 182.243 51.5365C182.243 52.0965 182.077 52.5632 181.743 52.9365C181.423 53.3099 181.003 53.6099 180.483 53.8365C179.977 54.0632 179.45 54.2232 178.903 54.3165C178.357 54.4099 177.863 54.4565 177.423 54.4565C177.077 54.4565 176.643 54.4365 176.123 54.3965C175.603 54.3699 175.09 54.2899 174.583 54.1565C174.077 54.0232 173.65 53.8099 173.303 53.5165C172.97 53.2365 172.803 52.8499 172.803 52.3565C172.803 51.9965 172.89 51.6565 173.063 51.3365C173.237 51.0299 173.45 50.7432 173.703 50.4765C173.97 50.2099 174.23 49.9765 174.483 49.7765C174.337 49.7099 174.137 49.6099 173.883 49.4765C173.643 49.3299 173.523 49.1632 173.523 48.9765C173.523 48.7499 173.643 48.4965 173.883 48.2165C174.137 47.9365 174.41 47.6699 174.703 47.4165C174.997 47.1499 175.223 46.9432 175.383 46.7965C174.703 46.4765 174.197 46.0699 173.863 45.5765C173.543 45.0699 173.383 44.4432 173.383 43.6965C173.383 43.0032 173.577 42.4099 173.963 41.9165C174.363 41.4099 174.863 41.0232 175.463 40.7565C176.077 40.4765 176.697 40.3365 177.323 40.3365C177.55 40.3365 177.777 40.3565 178.003 40.3965C178.23 40.4232 178.45 40.4699 178.663 40.5365C178.77 40.5632 178.883 40.6032 179.003 40.6565C179.137 40.6965 179.257 40.7232 179.363 40.7365C179.457 40.7499 179.543 40.7565 179.623 40.7565C179.717 40.7565 179.81 40.7565 179.903 40.7565C180.383 40.7565 180.843 40.7232 181.283 40.6565C181.723 40.5765 182.117 40.3499 182.463 39.9765C182.543 39.8965 182.61 39.8565 182.663 39.8565C182.77 39.8565 182.83 39.9499 182.843 40.1365C182.857 40.3099 182.863 40.4299 182.863 40.4965Z" fill="white"/>
<path d="M42.9092 25.9688C43.2625 25.9938 43.5134 26.0063 43.9098 26.026C43.267 23.3797 41.9612 21.256 40.1543 19.4231C38.6144 17.8611 36.8134 16.6489 34.715 16.0176C33.6366 15.6931 33.0865 15.1858 33.1614 13.9648C33.3745 13.9787 33.6242 13.9528 33.8491 14.0157C39.7999 15.6784 43.7047 19.4618 45.475 25.3808C45.7263 26.2212 46.0409 26.589 46.941 26.7481C51.217 27.504 55.4755 28.3593 59.7272 29.3341C50.0951 29.3341 40.4631 29.3341 31.2295 29.3341C32.4944 27.9299 33.918 26.3302 35.3765 24.7632C35.5085 24.6214 35.8778 24.6253 36.1168 24.6698C38.3493 25.0851 40.5774 25.5241 42.9092 25.9688Z" fill="white"/>
<path d="M16.8178 33.4304C16.4645 33.4054 16.2136 33.3929 15.8172 33.3731C16.4601 36.0194 17.7659 38.1432 19.5728 39.976C21.1126 41.538 22.9136 42.7502 25.0121 43.3816C26.0904 43.706 26.6406 44.2134 26.5657 45.4344C26.3526 45.4205 26.1029 45.4463 25.878 45.3834C19.9271 43.7207 16.0223 39.9373 14.2521 34.0184C14.0007 33.1779 13.6862 32.8101 12.786 32.651C8.51001 31.8951 4.25155 31.0398 -0.000106812 30.065C9.63194 30.065 19.264 30.065 28.4976 30.065C27.2326 31.4693 25.8091 33.0689 24.3506 34.6359C24.2186 34.7778 23.8492 34.7738 23.6102 34.7294C21.3777 34.314 19.1496 33.875 16.8178 33.4304Z" fill="white"/>
<path d="M26.1251 16.8179C26.1501 16.4646 26.1626 16.2138 26.1823 15.8173C23.536 16.4602 21.4123 17.766 19.5794 19.5729C18.0174 21.1127 16.8053 22.9138 16.1739 25.0122C15.8494 26.0905 15.3421 26.6407 14.1211 26.5658C14.135 26.3527 14.1092 26.103 14.172 25.8781C15.8347 19.9273 19.6182 16.0224 25.5371 14.2522C26.3775 14.0008 26.7453 13.6863 26.9045 12.7861C27.6604 8.51013 28.5156 4.25168 29.4904 1.52588e-05C29.4904 9.63206 29.4904 19.2641 29.4904 28.4977C28.0862 27.2327 26.4866 25.8092 24.9195 24.3507C24.7777 24.2187 24.7816 23.8493 24.8261 23.6103C25.2414 21.3778 25.6804 19.1498 26.1251 16.8179Z" fill="white"/>
<path d="M34.9865 35.6289C33.4359 43.8113 31.898 51.9057 30.3601 60C30.3138 59.9952 30.2675 59.9904 30.2212 59.9856C30.2212 50.202 30.2212 40.4185 30.2212 30.635C30.3007 30.5785 30.3802 30.5221 30.4598 30.4656C31.9729 32.1573 33.4861 33.8491 34.9865 35.6289Z" fill="white"/>
</svg>
